<svg width="24" height="24" viewBox="0 0 24 24" fill="none" xmlns="http://www.w3.org/2000/svg">
    <g clip-path="url(#clip0_404_4384)">
        <path d="M12 20C14.121 19.9976 16.1544 19.154 17.6542 17.6542C19.154 16.1544 19.9976 14.121 20 12V8C20 5.87827 19.1571 3.84344 17.6569 2.34315C16.1566 0.842855 14.1217 0 12 0C9.87827 0 7.84344 0.842855 6.34315 2.34315C4.84285 3.84344 4 5.87827 4 8V12C4.00238 14.121 4.846 16.1544 6.34578 17.6542C7.84555 19.154 9.879 19.9976 12 20ZM6 9H10V7H6.09C6.32503 5.60251 7.04768 4.33352 8.12965 3.41832C9.21161 2.50313 10.5829 2.00096 12 2.00096C13.4171 2.00096 14.7884 2.50313 15.8704 3.41832C16.9523 4.33352 17.675 5.60251 17.91 7H14V9H18V11H14V13H17.91C17.675 14.3975 16.9523 15.6665 15.8704 16.5817C14.7884 17.4969 13.4171 17.999 12 17.999C10.5829 17.999 9.21161 17.4969 8.12965 16.5817C7.04768 15.6665 6.32503 14.3975 6.09 13H10V11H6V9Z" fill="#C5C5C5"/>
        <path d="M22 13C21.9974 15.3861 21.0483 17.6738 19.361 19.361C17.6738 21.0483 15.3861 21.9974 13 22H11C8.61395 21.9971 6.32645 21.0479 4.63925 19.3607C2.95206 17.6736 2.00291 15.3861 2 13H0C0.00344047 15.9163 1.16347 18.7122 3.22563 20.7744C5.28778 22.8365 8.08367 23.9966 11 24H13C15.9163 23.9966 18.7122 22.8365 20.7744 20.7744C22.8365 18.7122 23.9966 15.9163 24 13H22Z" fill="#C5C5C5"/>
    </g>
    <defs>
        <clipPath id="clip0_404_4384">
            <rect width="24" height="24" fill="white"/>
        </clipPath>
    </defs>
</svg>
