<svg width="261" height="56" viewBox="0 0 261 56" fill="none" xmlns="http://www.w3.org/2000/svg">
    <g clip-path="url(#clip0_146_38436)">
        <path d="M92.5169 38.3109C92.5169 38.3109 91.4197 38.6731 88.9008 38.6731C80.1228 38.6731 82.3565 30.2629 77.1554 30.2629H76.7091V38.3519H69.1089V11.7889H79.1474C86.7868 11.7889 90.649 14.7662 90.649 21.4064C90.649 25.1081 89.0227 27.5637 85.8137 28.9327C88.2128 29.7368 88.252 32.6344 91.2607 32.6344C91.707 32.6344 92.1142 32.5546 92.1142 32.5546L92.5213 38.3087L92.5169 38.3109ZM78.1699 25.1922C81.2984 25.1922 83.2512 23.8641 83.2512 21.4905C83.2512 18.9141 81.503 17.5451 78.6598 17.5451H76.7091V25.1922H78.1721H78.1699Z" fill="#6741FF"/>
        <path d="M98.3101 17.6659C95.7498 17.6659 93.7578 15.8959 93.7578 13.3605C93.7578 10.8252 95.7498 9.0142 98.3101 9.0142C100.87 9.0142 102.902 10.8252 102.902 13.3605C102.902 15.8959 100.87 17.6659 98.3101 17.6659ZM94.7331 19.3561L102.048 19.1556V38.3519H94.7331V19.3561Z" fill="#6741FF"/>
        <path d="M125.225 19.3561L118.398 38.3519H110.149L103.322 19.3561H111.044L113.848 28.8141C114.133 29.8597 114.255 30.5453 114.418 31.7116H114.582C114.784 30.4246 114.867 29.739 115.15 28.8141L117.913 19.3561H125.228H125.225Z" fill="#6741FF"/>
        <path d="M143.998 35.4133C143.145 36.5409 140.38 38.5933 135.503 38.5933C128.717 38.5933 124.855 34.4885 124.855 28.8529C124.855 23.2173 128.837 19.1125 134.894 19.1125C140.502 19.1125 143.835 22.8142 143.835 28.1285C143.835 29.4566 143.633 30.3426 143.633 30.3426H132.131C132.66 32.0329 133.96 33.32 136.44 33.32C138.919 33.32 140.219 32.1126 140.95 31.468L143.998 35.4133ZM131.926 27.2036H137.454C137.373 25.7549 136.559 24.3859 134.894 24.3859C133.511 24.3859 132.253 25.1102 131.926 27.2036Z" fill="#6741FF"/>
        <path d="M161.574 19.8778L159.623 26.7595C158.811 26.1149 157.997 25.8325 157.063 25.8325C154.99 25.8325 153.691 27.3222 153.691 29.8166V38.3475H146.376V19.3518L152.391 19.1513C152.879 20.1969 153.244 22.3701 153.244 23.1354H153.366C154.056 20.8415 155.519 19.1103 158.445 19.1103C159.745 19.1103 160.64 19.3928 161.574 19.8757V19.8778Z" fill="#6741FF"/>
        <path d="M183.264 28.8529C183.264 34.9304 179.565 38.5933 174.932 38.5933C172.25 38.5933 170.3 37.3062 169.161 35.3745H168.998C168.998 36.1787 168.834 37.3062 168.51 38.3519H162.697V9.93693H170.012V21.7686C170.866 20.3608 172.492 19.1125 175.296 19.1125C179.563 19.1125 183.262 22.3722 183.262 28.8529H183.264ZM175.869 28.8529C175.869 26.518 174.852 25.19 173.023 25.19C171.194 25.19 170.014 26.559 170.014 28.0078V29.739C170.014 31.4292 171.519 32.5158 173.023 32.5158C174.73 32.5158 175.869 31.1468 175.869 28.8529Z" fill="#6741FF"/>
        <path d="M205.42 38.1902C205.42 38.1902 204.038 38.5933 202.087 38.5933C199.039 38.5933 197.494 37.5865 196.886 35.7755H196.806C196.155 37.0626 194.653 38.5933 191.115 38.5933C187.011 38.5933 184.612 36.6207 184.612 33.4019C184.612 28.1695 190.464 27.4451 196.438 27.1239V26.6C196.438 25.2719 195.665 24.3061 194.08 24.3061C192.495 24.3061 191.722 24.9097 191.722 25.7958C191.722 25.9165 191.764 26.1171 191.844 26.2399L185.666 27.2856C185.666 27.2856 185.38 26.3995 185.38 25.2331C185.38 21.4905 188.794 19.1168 194.402 19.1168C200.457 19.1168 203.507 21.9755 203.507 27.0851V32.035C203.507 32.7594 203.872 33.0418 204.482 33.0418C204.726 33.0418 204.928 33.0009 205.172 32.9211L205.416 38.1923L205.42 38.1902ZM196.438 31.509V30.2219C193.634 30.4634 191.561 30.5841 191.561 32.1126C191.561 33.1195 192.456 33.5614 193.39 33.5614C195.138 33.5614 196.438 32.837 196.438 31.509Z" fill="#6741FF"/>
        <path d="M227.061 26.6409V38.3519H219.746V28.4907C219.746 26.6388 218.973 25.4315 217.307 25.4315C215.52 25.4315 214.747 26.8802 214.747 28.6114V38.3519H207.432V19.3561L213.447 19.1556C213.935 20.2012 214.301 21.9734 214.301 22.7366H214.464C215.318 20.6432 216.983 19.1146 220.153 19.1146C225.03 19.1146 227.063 22.5361 227.063 26.6409H227.061Z" fill="#6741FF"/>
        <path d="M238.832 31.1468H237.491V38.3497H230.176V9.93693H237.491V25.7937H239.157L243.221 19.354H251.512L245.009 28.5295L252.324 38.3497H243.626L238.83 31.1468H238.832Z" fill="#6741FF"/>
        <path d="M19.6737 8.94311C20.2702 5.70062 18.0975 2.59395 14.8232 2.00323C11.5488 1.41251 8.41164 3.56411 7.81512 6.8066C7.2186 10.0491 9.39133 13.1558 12.6657 13.7465C15.94 14.3372 19.0772 12.1856 19.6737 8.94311Z" fill="#6741FF"/>
        <path d="M56.0856 24.6963C56.0812 24.4311 56.0573 24.1681 56.0202 23.9116C55.9941 23.6485 55.9549 23.3898 55.894 23.1354C55.8635 22.9716 55.8265 22.8099 55.7829 22.6482C55.7263 22.3895 55.6458 22.1351 55.5565 21.8893C55.476 21.6349 55.3802 21.387 55.2691 21.1477C55.169 20.8997 55.0558 20.6583 54.923 20.4276C54.8424 20.2702 54.7554 20.115 54.6596 19.9641C54.5268 19.7269 54.3744 19.5027 54.2111 19.285C54.0587 19.0586 53.8889 18.8452 53.706 18.6425C53.534 18.4291 53.349 18.2264 53.1487 18.0388C52.9593 17.8405 52.759 17.6486 52.5413 17.4783C52.3976 17.3511 52.2452 17.2282 52.0862 17.114C51.8707 16.9372 51.6378 16.7798 51.3961 16.6353C51.1653 16.478 50.9215 16.3335 50.6668 16.2085C50.423 16.0683 50.1704 15.9411 49.9026 15.8355C49.7132 15.7471 49.5195 15.6695 49.3192 15.6005C49.0557 15.4906 48.7814 15.4 48.4984 15.3267C48.2328 15.2383 47.9607 15.1629 47.6755 15.1111C47.6689 15.1111 47.6624 15.1111 47.6559 15.109C47.5296 15.0766 47.4033 15.0443 47.2727 15.0206C47.2226 15.0119 47.1704 15.0098 47.1203 15.0012C47.0702 14.9904 47.0202 14.9753 46.9679 14.9667C46.9026 14.9559 46.8395 14.9516 46.7742 14.9408C46.7437 14.9343 46.7132 14.9257 46.6827 14.9192C46.6022 14.9042 46.5216 14.8998 46.4411 14.8891C46.4258 14.8869 46.4128 14.8826 46.3975 14.8783C46.1907 14.8416 45.986 14.8158 45.7814 14.7985C45.6704 14.7856 45.5593 14.7683 45.4483 14.7597C45.3373 14.7468 45.2262 14.7338 45.1152 14.7274C45.0042 14.7144 44.8932 14.7058 44.7821 14.6993C44.6711 14.6886 44.5601 14.6821 44.4512 14.6756C44.3402 14.6648 44.2291 14.6605 44.1203 14.6562C43.9026 14.6368 43.6849 14.6282 43.4693 14.6347C43.3583 14.6325 43.2473 14.6282 43.1384 14.6304C43.0274 14.6304 42.9164 14.626 42.8075 14.6304C42.6965 14.6304 42.5854 14.6304 42.4766 14.6347C42.3656 14.6347 42.2567 14.639 42.1457 14.6454C42.0346 14.6454 41.9258 14.6541 41.8169 14.6605C41.6014 14.6627 41.3859 14.6756 41.1747 14.7015C41.0637 14.7101 40.9548 14.7166 40.8459 14.7295C40.7371 14.7381 40.6261 14.7468 40.5172 14.7619C40.4062 14.7726 40.2973 14.7834 40.1885 14.7985C40.0796 14.8093 39.9708 14.8244 39.8619 14.8395C39.7509 14.8503 39.6442 14.8675 39.5353 14.8847C39.4265 14.8977 39.3176 14.9171 39.2088 14.9365C38.9976 14.9624 38.7886 14.999 38.584 15.0464C38.4751 15.0658 38.3662 15.0852 38.2596 15.1111C38.1507 15.1305 38.044 15.1542 37.9374 15.1801C37.8285 15.2017 37.7218 15.2254 37.6152 15.2534C37.5063 15.275 37.3996 15.303 37.2929 15.331C37.1841 15.3547 37.0796 15.3828 36.9729 15.4129C36.7661 15.4582 36.5658 15.5143 36.3677 15.579C36.261 15.6091 36.1543 15.6372 36.0498 15.6717C35.9432 15.7018 35.8365 15.7342 35.732 15.7687C35.6253 15.801 35.5208 15.8333 35.4163 15.87C35.3096 15.9023 35.2051 15.939 35.1006 15.9756C34.9939 16.008 34.8916 16.0468 34.7871 16.0856C34.6804 16.1201 34.5781 16.161 34.4736 16.1999C34.2755 16.2645 34.0817 16.34 33.8923 16.4241C33.7878 16.465 33.6833 16.5038 33.5832 16.5513C33.544 16.5664 33.5026 16.5793 33.4635 16.5965C33.4504 16.5879 33.4373 16.5771 33.4243 16.5685C33.3285 16.4995 33.2349 16.4262 33.1369 16.3615C33.0411 16.2904 32.9475 16.2193 32.8473 16.1524C32.7515 16.0813 32.6579 16.008 32.5556 15.9433C32.5164 15.9153 32.4794 15.8872 32.4402 15.8592C32.3444 15.7838 32.2443 15.7169 32.1441 15.6458C32.0483 15.5703 31.946 15.5013 31.8459 15.4324C31.7501 15.3569 31.6478 15.2879 31.5476 15.2168C31.4518 15.1391 31.3495 15.0702 31.2472 14.999C31.1514 14.9214 31.0469 14.8524 30.9446 14.7813C30.8466 14.7037 30.7443 14.6347 30.6398 14.5614C30.4874 14.4406 30.3284 14.3264 30.1652 14.2186C30.065 14.1431 29.9649 14.0677 29.8604 13.9987C29.758 13.9232 29.6601 13.8478 29.5534 13.7788C29.4511 13.7033 29.3509 13.6257 29.2443 13.5567C29.1419 13.4812 29.0396 13.4036 28.9329 13.3346C28.8306 13.2592 28.7283 13.1816 28.6194 13.1104C28.5149 13.035 28.4126 12.9574 28.3038 12.8862C28.1993 12.8086 28.0969 12.731 27.9881 12.662C27.8836 12.5844 27.7791 12.5068 27.6702 12.4378C27.5657 12.3602 27.4612 12.2826 27.3502 12.2114C27.2457 12.1338 27.139 12.0562 27.028 11.985C26.3117 11.4612 25.4692 11.0817 24.533 10.9114C21.2587 10.3207 18.1215 12.4723 17.525 15.7148C17.0743 18.1639 18.2064 20.5354 20.1985 21.8031C20.3008 21.8785 20.4009 21.9518 20.5076 22.0208C20.6099 22.0963 20.7101 22.1696 20.8168 22.2386C20.9191 22.314 21.0192 22.3895 21.1259 22.4563C21.226 22.5318 21.3262 22.6072 21.4329 22.6741C21.533 22.7495 21.6332 22.825 21.7398 22.8918C21.84 22.9673 21.9401 23.0427 22.0446 23.1096C22.1448 23.185 22.2449 23.2605 22.3494 23.3273C22.4496 23.4006 22.5475 23.4782 22.6542 23.545C22.7544 23.6183 22.8523 23.696 22.959 23.7628C23.0026 23.7951 23.0461 23.8253 23.0896 23.8577C23.0896 23.8577 23.0875 23.8598 23.0853 23.862C22.9982 23.946 22.9155 24.0344 22.8349 24.125C22.7478 24.2112 22.6673 24.2996 22.5867 24.3902C22.4996 24.4764 22.4213 24.5691 22.3385 24.6597C22.1949 24.8041 22.0577 24.9572 21.9292 25.1167C21.8487 25.2073 21.766 25.2978 21.6898 25.3927C21.6092 25.4832 21.5265 25.5759 21.4525 25.6729C21.3719 25.7656 21.2914 25.8583 21.2152 25.9554C21.1346 26.0481 21.0562 26.1429 20.98 26.2421C20.8995 26.3348 20.8233 26.4318 20.7471 26.531C20.6665 26.6258 20.5903 26.7229 20.5163 26.8242C20.4358 26.9191 20.3617 27.0182 20.2877 27.1195C20.2072 27.2166 20.1353 27.3179 20.0613 27.4171C19.9307 27.5744 19.8088 27.7405 19.6956 27.9108C19.6215 28.0099 19.5453 28.1113 19.4757 28.2148C19.4016 28.3161 19.3276 28.4174 19.258 28.523C19.1839 28.6244 19.1121 28.7279 19.0424 28.8335C18.9684 28.937 18.8966 29.0405 18.8291 29.1461C18.7551 29.2496 18.6854 29.3552 18.6179 29.463C18.5461 29.5665 18.4764 29.6743 18.4089 29.7821C18.3371 29.8856 18.2696 29.9955 18.2021 30.1033C18.1302 30.209 18.0627 30.3189 17.9974 30.4289C17.9256 30.5345 17.8603 30.6466 17.795 30.7566C17.6796 30.9269 17.5729 31.1037 17.4771 31.2869C17.4118 31.3969 17.3421 31.5047 17.2833 31.6211C17.218 31.731 17.1505 31.8432 17.0918 31.9574C17.0264 32.0695 16.9611 32.1795 16.9024 32.2959C16.837 32.408 16.7739 32.5201 16.7151 32.6365C16.6498 32.7486 16.5889 32.8629 16.5301 32.9815C16.4648 33.0957 16.406 33.21 16.3472 33.3286C16.2841 33.4428 16.2253 33.5593 16.1687 33.6778C16.1055 33.7921 16.0468 33.9107 15.9923 34.0292C15.9292 34.1457 15.8726 34.2642 15.8182 34.385C15.755 34.5014 15.7006 34.6221 15.6462 34.7429C15.5482 34.9261 15.4611 35.1137 15.3827 35.3099C15.3261 35.4284 15.2695 35.5492 15.2195 35.6721C15.1629 35.7928 15.1063 35.9114 15.0584 36.0364C15.0018 36.1571 14.9473 36.2779 14.8994 36.4029C14.845 36.5236 14.7906 36.6465 14.7449 36.7737C14.6904 36.8966 14.6382 37.0195 14.5925 37.1467C14.538 37.2696 14.488 37.3946 14.4422 37.5218C14.3878 37.6447 14.3399 37.7719 14.2942 37.8991C14.242 38.022 14.1941 38.1492 14.1505 38.2786C14.0983 38.4036 14.0525 38.5308 14.009 38.6601C13.9568 38.7852 13.9132 38.9145 13.8697 39.0439C13.7891 39.2379 13.7195 39.4363 13.6607 39.6411C13.615 39.7683 13.5692 39.8976 13.53 40.0292C13.4843 40.1585 13.4408 40.2879 13.4038 40.4194C13.3581 40.5487 13.3145 40.6781 13.2797 40.8139C13.2361 40.9433 13.1948 41.0748 13.1578 41.2084C13.1142 41.3399 13.075 41.4715 13.038 41.6051C12.9945 41.7366 12.9575 41.8681 12.9226 42.004C12.8791 42.1355 12.8443 42.2691 12.8094 42.405C12.7681 42.5365 12.7332 42.6723 12.7006 42.8081C12.6592 42.9418 12.6266 43.0776 12.5939 43.2134C12.5525 43.3471 12.5221 43.4829 12.4894 43.6209C12.4284 43.8236 12.3784 44.0305 12.3392 44.244C12.3392 44.244 12.3392 44.2461 12.3392 44.2483C12.3087 44.3712 12.2739 44.494 12.2499 44.6212C12.2477 44.6342 12.2477 44.6471 12.2456 44.66C12.2173 44.7743 12.1868 44.8843 12.165 45.0007C12.1607 45.0244 12.1585 45.0503 12.1563 45.074C12.1324 45.1775 12.1019 45.2766 12.0845 45.3823C12.0779 45.4189 12.0758 45.4534 12.0692 45.4901C12.0475 45.5828 12.0213 45.6712 12.0039 45.766C11.9952 45.8135 11.993 45.8609 11.9843 45.9083C11.9669 45.9902 11.943 46.0679 11.9277 46.1498C11.9168 46.2102 11.9125 46.2684 11.9038 46.3287C11.8885 46.3977 11.8668 46.4667 11.8537 46.5379C11.2572 49.7803 13.4299 52.887 16.7042 53.4777C19.9786 54.0685 23.1158 51.9169 23.7123 48.6744C23.7232 48.614 23.7275 48.5558 23.7362 48.4976C23.7515 48.4264 23.7732 48.3596 23.7863 48.2885C23.795 48.241 23.7972 48.1936 23.8059 48.1462C23.8233 48.0642 23.8473 47.9866 23.8625 47.9047C23.869 47.868 23.8712 47.8336 23.8777 47.7969C23.8995 47.7042 23.9256 47.6158 23.9431 47.5209C23.9474 47.4972 23.9474 47.4714 23.9518 47.4476C23.9757 47.3442 24.0062 47.245 24.0258 47.1394C24.028 47.1264 24.028 47.1135 24.0301 47.1005C24.0584 46.9863 24.0889 46.8763 24.1107 46.7599C24.1107 46.7599 24.1107 46.7578 24.1107 46.7556C24.1216 46.7146 24.1303 46.6715 24.1412 46.6306C24.1738 46.5184 24.1978 46.4042 24.2261 46.2899C24.2587 46.1778 24.2849 46.0635 24.3132 45.9493C24.348 45.8393 24.3763 45.7251 24.4046 45.6108C24.4394 45.5009 24.4699 45.3888 24.4982 45.2745C24.533 45.1645 24.5657 45.0524 24.594 44.9403C24.6288 44.8304 24.6637 44.7204 24.6941 44.6083C24.7312 44.4984 24.766 44.3906 24.7965 44.2785C24.8335 44.1707 24.8705 44.0607 24.901 43.9486C24.938 43.8408 24.9772 43.733 25.0098 43.6209C25.049 43.5131 25.0904 43.4075 25.1209 43.2954C25.1339 43.2587 25.147 43.2221 25.16 43.1854C25.2036 43.0819 25.2362 42.972 25.2733 42.8642C25.3168 42.7607 25.3516 42.6529 25.3908 42.5451C25.4344 42.4416 25.4714 42.3338 25.5106 42.2282C25.5541 42.1247 25.5933 42.0191 25.6325 41.9134C25.6782 41.8099 25.7196 41.7065 25.7566 41.6008C25.8023 41.4995 25.8458 41.396 25.885 41.2904C25.9307 41.189 25.9743 41.0877 26.0156 40.9821C26.0614 40.8807 26.1093 40.7794 26.1484 40.6759C26.1942 40.5746 26.2442 40.4754 26.2856 40.3719C26.3335 40.2728 26.3836 40.1736 26.4249 40.0701C26.4402 40.0399 26.4532 40.0076 26.4685 39.9774C26.5207 39.8804 26.5621 39.7791 26.6078 39.6799C26.6601 39.585 26.7036 39.4837 26.7515 39.3845C26.8037 39.2897 26.8495 39.1905 26.8974 39.0913C26.9496 38.9965 26.9975 38.8995 27.0454 38.8024C27.0976 38.7076 27.1477 38.6127 27.1956 38.5157C27.2479 38.423 27.3001 38.3281 27.348 38.2311C27.4024 38.1384 27.4547 38.0457 27.5026 37.9487C27.557 37.856 27.6114 37.7654 27.6615 37.6684C27.7159 37.5757 27.7725 37.4852 27.8226 37.3903C27.877 37.2998 27.9358 37.2092 27.9859 37.1144C28.0011 37.0906 28.0142 37.0669 28.0294 37.0411C28.0882 36.9548 28.1383 36.8621 28.1927 36.7716C28.2515 36.6853 28.3059 36.5948 28.3582 36.5042C28.417 36.418 28.4714 36.3296 28.5258 36.2391C28.5846 36.1528 28.6412 36.0666 28.6956 35.976C28.7544 35.892 28.8132 35.8057 28.8698 35.7173C28.9308 35.6332 28.9895 35.5492 29.044 35.4608C29.1049 35.3767 29.1659 35.2948 29.2225 35.2064C29.2834 35.1223 29.3466 35.0425 29.401 34.9563C29.462 34.8744 29.5251 34.7946 29.5817 34.7084C29.5948 34.6911 29.6078 34.6739 29.6209 34.6566C29.6862 34.579 29.7428 34.4949 29.8038 34.413C29.8691 34.3354 29.9279 34.2535 29.9888 34.1715C30.0541 34.0939 30.1151 34.0142 30.1739 33.9344C30.2392 33.8589 30.3023 33.7792 30.3633 33.6994C30.4286 33.6239 30.4917 33.5463 30.5527 33.4687C30.618 33.3933 30.6833 33.3178 30.7443 33.2402C30.8096 33.1669 30.8771 33.0936 30.938 33.0138C31.0033 32.9405 31.073 32.8694 31.134 32.7918C31.1449 32.781 31.1557 32.768 31.1644 32.7573C31.2341 32.6883 31.2951 32.6128 31.3604 32.5395C31.4301 32.4705 31.4932 32.3972 31.5585 32.3261C31.6282 32.2592 31.6935 32.1859 31.7588 32.1148C31.8285 32.048 31.8938 31.9768 31.9591 31.9078C32.0287 31.841 32.0962 31.7742 32.1616 31.703C32.2312 31.6362 32.3009 31.5715 32.3662 31.5025C32.4359 31.4378 32.5055 31.3732 32.573 31.3042C32.6427 31.2395 32.7145 31.177 32.782 31.1101C32.7886 31.1037 32.7951 31.0972 32.8016 31.0929C32.8735 31.0325 32.9409 30.9657 33.0084 30.9032C33.0542 30.8665 33.0977 30.8256 33.1434 30.7868C33.1434 30.7868 33.1456 30.7868 33.1478 30.7889C35.7625 28.6201 40.8394 25.2029 46.1842 26.6797C42.555 26.9471 37.8046 29.0922 35.8256 32.311C35.8909 32.3476 35.9584 32.3821 36.0259 32.4166C36.1195 32.4684 36.2153 32.518 36.3133 32.5632C36.4069 32.615 36.5027 32.6602 36.5985 32.7077C36.6921 32.7573 36.7879 32.8025 36.8837 32.8478C36.9773 32.8974 37.0731 32.9405 37.1689 32.9858C37.2625 33.0354 37.3583 33.0763 37.454 33.1216C37.6369 33.2165 37.8285 33.3027 38.0223 33.3803C38.1181 33.4234 38.2117 33.4687 38.3118 33.5054C38.4076 33.5485 38.5012 33.5894 38.5992 33.6282C38.695 33.6692 38.7908 33.7102 38.8887 33.7468C38.9845 33.7878 39.0803 33.8266 39.1783 33.8632C39.2719 33.902 39.3699 33.9387 39.4657 33.9753C39.5593 34.0142 39.6573 34.0487 39.7552 34.0831C39.8488 34.122 39.9468 34.1543 40.0426 34.1866C40.2385 34.2664 40.441 34.3354 40.65 34.3936C40.7458 34.4259 40.8416 34.4604 40.9417 34.4885C41.0375 34.5208 41.1333 34.551 41.2335 34.579C41.3293 34.6092 41.4272 34.6394 41.5252 34.6652C41.621 34.6954 41.719 34.7213 41.8169 34.7472C41.9127 34.7752 42.0107 34.8011 42.1087 34.8248C42.2045 34.8528 42.3024 34.8744 42.4004 34.8981C42.5985 34.9563 42.8031 35.0037 43.0121 35.0404C43.0579 35.049 43.1014 35.0512 43.145 35.0576C43.2429 35.0792 43.3387 35.1072 43.4367 35.1266C43.563 35.1503 43.6892 35.1611 43.8177 35.1762C43.8329 35.1784 43.846 35.1827 43.8612 35.187C44.1377 35.2366 44.412 35.2603 44.6863 35.2711C44.9781 35.3034 45.2676 35.3185 45.5528 35.3099C45.7705 35.3163 45.9839 35.312 46.1972 35.2969C46.4846 35.2926 46.7676 35.2667 47.0485 35.2236C47.3337 35.1978 47.6123 35.1525 47.8866 35.0878C48.1675 35.0382 48.4418 34.9757 48.7096 34.8873C48.9012 34.8356 49.0906 34.7752 49.2756 34.7062C49.5434 34.6221 49.8003 34.5186 50.0507 34.4001C50.3076 34.2944 50.5558 34.1737 50.7952 34.0357C51.0412 33.9107 51.2785 33.7727 51.505 33.6153C51.6617 33.5183 51.8119 33.4148 51.9578 33.3027C52.182 33.1496 52.391 32.9793 52.5935 32.7982C52.8025 32.6279 52.9984 32.4447 53.1835 32.2485C53.3751 32.0631 53.558 31.8669 53.7234 31.6556C53.8366 31.5262 53.9433 31.3947 54.0434 31.2546C54.2089 31.0498 54.3569 30.832 54.4963 30.6057C54.6443 30.3879 54.7771 30.1615 54.8969 29.9244C55.0253 29.6959 55.1451 29.4587 55.243 29.2108C55.3105 29.0642 55.3715 28.9133 55.4259 28.7602C55.526 28.5187 55.6088 28.2665 55.6784 28.0078C55.7546 27.7685 55.8221 27.5227 55.87 27.2683C55.8722 27.2554 55.8722 27.2424 55.8744 27.2295C55.8918 27.1476 55.9157 27.07 55.931 26.988C55.9462 26.9104 55.9506 26.835 55.9615 26.7574C55.9658 26.738 55.9702 26.7207 55.9745 26.7013C56.0202 26.4534 56.0442 26.2054 56.0572 25.9618C56.0856 25.6966 56.0986 25.4315 56.0921 25.1706C56.0943 25.0089 56.0921 24.8472 56.0834 24.6855L56.0856 24.6963Z" fill="#6741FF"/>
    </g>
    <defs>
        <clipPath id="clip0_146_38436">
            <rect width="244.609" height="51.6923" fill="white" transform="translate(7.71704 1.90616)"/>
        </clipPath>
    </defs>
</svg>
